<svg xmlns="http://www.w3.org/2000/svg" xmlns:xlink="http://www.w3.org/1999/xlink" width="36" height="34" viewBox="0 0 36 34">
    <defs>
        <circle id="a" cx="25" cy="25" r="25"/>
    </defs>
    <g fill="none" fill-rule="evenodd">
        <g transform="translate(-7 -10)">
            <mask id="b" fill="#fff">
                <use xlink:href="#a"/>
            </mask>
            <use fill="#D8D8D8" xlink:href="#a"/>
            <path fill="#C9C9C9" d="M37.828 40.435c-.074-.023-1.764-.544-5.871-.878-.297-.734-.499-1.76-.598-3.014 3.387-2.724 5.473-7.472 5.473-12.528 0-7.669-.896-14.015-11.903-14.015-11 0-11.896 6.346-11.896 14.015 0 5.094 2.008 9.71 5.396 12.467-.118 1.246-.332 2.265-.629 2.999-4.438.329-5.775.934-5.844.972-6.107 2.321-8.831 5.903-8.831 11.125v.922H46.71v-.922c0-5.71-2.915-9.504-8.882-11.143zM4.975 50.655c.297-3.907 2.573-6.557 7.682-8.502.013-.005 1.333-.577 5.79-.87l.494-.033.24-.439c.584-1.063.954-2.64 1.098-4.69l.037-.505-.405-.302c-3.121-2.329-5.062-6.659-5.062-11.3 0-7.351.702-12.17 10.08-12.17 9.385 0 10.087 4.819 10.087 12.17 0 4.675-1.965 9.025-5.128 11.348l-.402.296.028.501c.114 2.065.469 3.654 1.058 4.724l.237.436.49.036c4.236.312 5.976.837 6.022.85 4.899 1.348 7.259 4.122 7.542 8.45H4.975z" mask="url(#b)"/>
        </g>
    </g>
</svg>
